<svg width="500" height="500" viewBox="90 90 520 520" fill="none" xmlns="http://www.w3.org/2000/svg">
<path d="M365.705 590.91C355.997 592.086 343.292 591.641 333.585 591.111C278.773 588.023 226.476 567.097 184.672 531.52C142.641 496.265 108.539 441.505 103.77 386.006C100.125 338.562 115.232 291.579 145.85 255.146C175.042 220.959 216.61 199.747 261.429 196.168C318.814 191.501 379.458 216.585 396.807 275.141C400.122 286.332 400.939 294.716 401.865 306.394C380.994 275.116 349.203 257.549 311.492 259.691C253.762 268.073 233.346 324.507 240.937 376.486C248.315 424.093 274.332 466.811 313.25 495.22C353.249 524.875 403.322 537.575 452.626 530.571C498.043 523.817 530.748 503.527 563.508 472.555C528.012 529.232 471.645 569.674 406.57 585.147C394.15 588.059 378.642 590.125 365.705 590.91Z" fill="#2B98FF"/>
<path d="M365.705 590.91C361.963 588.303 348.478 587.548 343.116 586.591C237.391 567.737 154.406 456.94 187.544 350.23C203.003 300.452 247.298 263.152 299.618 259.134C303.002 258.878 308.397 258.506 311.673 259.053L311.492 259.691C253.762 268.073 233.346 324.507 240.937 376.486C248.316 424.093 274.332 466.811 313.25 495.22C353.249 524.875 403.322 537.575 452.626 530.571C498.043 523.817 530.748 503.527 563.508 472.555C528.012 529.232 471.645 569.674 406.57 585.147C394.151 588.059 378.642 590.125 365.705 590.91Z" fill="white"/>
<path d="M330.955 100.554C386.083 96.3467 437.782 116.454 481.029 149.099C564.757 212.306 540.23 347.855 430.591 360.284C443.918 326.963 447.032 294.539 435.174 260.22C422.432 223.366 395.406 195.304 360.714 178.299C358.24 177.108 355.736 175.978 353.207 174.91C309.713 156.508 262.081 158.373 218.664 176.087C176.337 193.638 140.818 224.396 117.403 263.774C110.897 274.741 104.966 287.99 100 299.772C107.419 256.754 126.787 216.688 155.892 184.148C201.703 132.482 262.426 104.586 330.955 100.554Z" fill="#2B98FF"/>
<path d="M591.479 308.062L592.381 305.422L592.972 305.421C594.873 309.17 596.652 326.094 596.896 330.694C597.524 335.118 597.304 341.005 597.243 345.513C596.451 409.181 555.611 464.781 496.745 488.564C457.495 504.461 413.529 504.078 374.559 487.498C334.907 470.942 303.548 439.182 287.505 399.328C277.343 373.852 265.729 323.176 299.33 310.13C304.335 325.015 307.629 334.071 315.581 347.666C336.059 382.907 369.721 408.553 409.141 418.943C447.325 428.927 485.886 422.722 519.804 402.871C555.306 382.001 581.089 347.906 591.479 308.062Z" fill="#2B98FF"/>
</svg>
