<svg width="2640" height="692" viewBox="0 0 2640 692" fill="none" xmlns="http://www.w3.org/2000/svg">
<path d="M365.705 590.91C355.997 592.086 343.292 591.641 333.585 591.111C278.773 588.023 226.476 567.097 184.672 531.52C142.641 496.265 108.539 441.505 103.77 386.006C100.125 338.562 115.232 291.579 145.85 255.146C175.042 220.959 216.61 199.747 261.429 196.168C318.814 191.501 379.458 216.585 396.807 275.141C400.122 286.332 400.939 294.716 401.865 306.394C380.994 275.116 349.203 257.549 311.492 259.691C253.762 268.073 233.346 324.507 240.937 376.486C248.315 424.093 274.332 466.811 313.25 495.22C353.249 524.875 403.322 537.575 452.626 530.571C498.043 523.817 530.748 503.527 563.508 472.555C528.012 529.232 471.645 569.674 406.57 585.147C394.15 588.059 378.642 590.125 365.705 590.91Z" fill="#0084FF"/>
<path d="M365.705 590.91C361.963 588.303 348.478 587.548 343.116 586.591C237.391 567.737 154.406 456.94 187.544 350.23C203.003 300.452 247.298 263.152 299.618 259.134C303.002 258.878 308.397 258.506 311.673 259.053L311.492 259.691C253.762 268.073 233.346 324.507 240.937 376.486C248.316 424.093 274.332 466.811 313.25 495.22C353.249 524.875 403.322 537.575 452.626 530.571C498.043 523.817 530.748 503.527 563.508 472.555C528.012 529.232 471.645 569.674 406.57 585.147C394.151 588.059 378.642 590.125 365.705 590.91Z" fill="black"/>
<path d="M330.955 100.554C386.083 96.3467 437.782 116.454 481.029 149.099C564.757 212.306 540.23 347.855 430.591 360.284C443.918 326.963 447.032 294.539 435.174 260.22C422.432 223.366 395.406 195.304 360.714 178.299C358.24 177.108 355.736 175.978 353.207 174.91C309.713 156.508 262.081 158.373 218.664 176.087C176.337 193.638 140.818 224.396 117.403 263.774C110.897 274.741 104.966 287.99 100 299.772C107.419 256.754 126.787 216.688 155.892 184.148C201.703 132.482 262.426 104.586 330.955 100.554Z" fill="#0084FF"/>
<path d="M591.479 308.062L592.381 305.422L592.972 305.421C594.873 309.17 596.652 326.094 596.896 330.694C597.524 335.118 597.304 341.005 597.243 345.513C596.451 409.181 555.611 464.781 496.745 488.564C457.495 504.461 413.529 504.078 374.559 487.498C334.907 470.942 303.548 439.182 287.505 399.328C277.343 373.852 265.729 323.176 299.33 310.13C304.335 325.015 307.629 334.071 315.581 347.666C336.059 382.907 369.721 408.553 409.141 418.943C447.325 428.927 485.886 422.722 519.804 402.871C555.306 382.001 581.089 347.906 591.479 308.062Z" fill="#0084FF"/>
<path d="M2138.51 514.792V172.162H2286.56L2332.62 362.042L2337.32 386.952H2341.55L2346.25 362.042L2395.13 172.162H2539.89V514.792H2452V288.722L2452.47 252.062H2448.71L2439.78 292.012L2383.38 514.792H2295.49L2238.15 289.662L2230.16 252.062H2225.93L2226.4 288.722V514.792H2138.51Z" fill="black"/>
<path d="M1937.84 519.492C1914.34 519.492 1892.88 516.672 1873.45 511.032C1854.34 505.079 1837.89 496.462 1824.1 485.182C1810.63 473.902 1800.13 459.959 1792.61 443.352C1785.09 426.745 1781.33 407.632 1781.33 386.012V172.162H1874.39V392.592C1874.39 403.559 1876.74 413.115 1881.44 421.262C1886.14 429.409 1893.19 435.675 1902.59 440.062C1911.99 444.449 1923.74 446.642 1937.84 446.642C1952.26 446.642 1964.01 444.449 1973.09 440.062C1982.49 435.675 1989.54 429.409 1994.24 421.262C1998.94 413.115 2001.29 403.559 2001.29 392.592V172.162H2094.35V386.012C2094.35 414.839 2087.77 439.122 2074.61 458.862C2061.77 478.602 2043.59 493.642 2020.09 503.982C1996.59 514.322 1969.18 519.492 1937.84 519.492Z" fill="black"/>
<path d="M1440.39 514.792V172.162H1623.69C1649.7 172.162 1671.48 176.705 1689.02 185.792C1706.57 194.565 1719.57 207.099 1728.03 223.392C1736.81 239.372 1741.19 258.015 1741.19 279.322C1741.19 296.869 1737.9 312.379 1731.32 325.852C1725.06 339.325 1716.13 350.449 1704.53 359.222C1692.94 367.682 1679.15 373.635 1663.17 377.082L1660.82 376.612L1662.7 370.032L1754.82 514.792H1643.43L1571.52 394.472H1525.93V324.442H1604.42C1616.64 324.442 1625.89 321.465 1632.15 315.512C1638.73 309.559 1642.02 301.255 1642.02 290.602V276.502C1642.02 265.849 1638.73 257.702 1632.15 252.062C1625.57 246.109 1616.33 243.132 1604.42 243.132H1533.45V514.792H1440.39Z" fill="black"/>
<path d="M1239.73 519.492C1216.23 519.492 1194.76 516.672 1175.34 511.032C1156.22 505.079 1139.77 496.462 1125.99 485.182C1112.51 473.902 1102.02 459.959 1094.5 443.352C1086.98 426.745 1083.22 407.632 1083.22 386.012V172.162H1176.28V392.592C1176.28 403.559 1178.63 413.115 1183.33 421.262C1188.03 429.409 1195.08 435.675 1204.48 440.062C1213.88 444.449 1225.63 446.642 1239.73 446.642C1254.14 446.642 1265.89 444.449 1274.98 440.062C1284.38 435.675 1291.43 429.409 1296.13 421.262C1300.83 413.115 1303.18 403.559 1303.18 392.592V172.162H1396.24V386.012C1396.24 414.839 1389.66 439.122 1376.5 458.862C1363.65 478.602 1345.48 493.642 1321.98 503.982C1298.48 514.322 1271.06 519.492 1239.73 519.492Z" fill="black"/>
<path d="M719.33 514.792V172.162H812.39V514.792H719.33ZM946.81 514.792V172.162H1039.4V514.792H946.81ZM804.87 377.552V304.232H954.33V377.552H804.87Z" fill="black"/>
</svg>
