<svg width="2640" height="692" viewBox="0 0 2640 692" fill="none" xmlns="http://www.w3.org/2000/svg">
<g transform="translate(0, -691.654)">
<path d="M365.705 1282.56C355.997 1283.74 343.292 1283.3 333.585 1282.77C278.773 1279.68 226.476 1258.75 184.672 1223.17C142.641 1187.92 108.539 1133.16 103.77 1077.66C100.125 1030.22 115.232 983.233 145.85 946.8C175.042 912.613 216.61 891.401 261.429 887.821C318.814 883.155 379.458 908.239 396.807 966.795C400.122 977.986 400.939 986.37 401.865 998.048C380.994 966.77 349.203 949.203 311.492 951.345C253.762 959.727 233.346 1016.16 240.937 1068.14C248.315 1115.75 274.332 1158.46 313.25 1186.87C353.249 1216.53 403.322 1229.23 452.626 1222.23C498.043 1215.47 530.748 1195.18 563.508 1164.21C528.012 1220.89 471.645 1261.33 406.57 1276.8C394.15 1279.71 378.642 1281.78 365.705 1282.56Z" fill="#2B98FF"/>
<path d="M365.705 1282.56C361.963 1279.96 348.478 1279.2 343.116 1278.25C237.391 1259.39 154.406 1148.59 187.544 1041.88C203.003 992.105 247.298 954.806 299.618 950.788C303.002 950.532 308.397 950.16 311.673 950.707L311.492 951.345C253.762 959.727 233.346 1016.16 240.937 1068.14C248.316 1115.75 274.332 1158.46 313.25 1186.87C353.249 1216.53 403.322 1229.23 452.626 1222.23C498.043 1215.47 530.748 1195.18 563.508 1164.21C528.012 1220.89 471.645 1261.33 406.57 1276.8C394.151 1279.71 378.642 1281.78 365.705 1282.56Z" fill="white"/>
<path d="M330.955 792.208C386.083 788.001 437.782 808.108 481.029 840.753C564.757 903.96 540.23 1039.51 430.591 1051.94C443.918 1018.62 447.032 986.193 435.174 951.874C422.432 915.02 395.406 886.958 360.714 869.953C358.24 868.762 355.736 867.632 353.207 866.564C309.713 848.162 262.081 850.027 218.664 867.741C176.337 885.292 140.818 916.05 117.403 955.428C110.897 966.394 104.966 979.644 100 991.426C107.419 948.408 126.787 908.342 155.892 875.802C201.703 824.136 262.426 796.24 330.955 792.208Z" fill="#2B98FF"/>
<path d="M591.479 999.716L592.381 997.076L592.972 997.075C594.873 1000.82 596.652 1017.75 596.896 1022.35C597.524 1026.77 597.304 1032.66 597.243 1037.17C596.451 1100.83 555.611 1156.43 496.745 1180.22C457.495 1196.12 413.529 1195.73 374.559 1179.15C334.907 1162.6 303.548 1130.84 287.505 1090.98C277.343 1065.51 265.729 1014.83 299.33 1001.78C304.335 1016.67 307.629 1025.72 315.581 1039.32C336.059 1074.56 369.721 1100.21 409.141 1110.6C447.325 1120.58 485.886 1114.38 519.804 1094.52C555.306 1073.66 581.089 1039.56 591.479 999.716Z" fill="#2B98FF"/>
<path d="M2138.51 1206.45V863.816H2286.56L2332.62 1053.7L2337.32 1078.61H2341.55L2346.25 1053.7L2395.13 863.816H2539.89V1206.45H2452V980.376L2452.47 943.716H2448.71L2439.78 983.666L2383.38 1206.45H2295.49L2238.15 981.316L2230.16 943.716H2225.93L2226.4 980.376V1206.45H2138.51Z" fill="white"/>
<path d="M1937.84 1211.15C1914.34 1211.15 1892.88 1208.33 1873.45 1202.69C1854.34 1196.73 1837.89 1188.12 1824.1 1176.84C1810.63 1165.56 1800.13 1151.61 1792.61 1135.01C1785.09 1118.4 1781.33 1099.29 1781.33 1077.67V863.816H1874.39V1084.25C1874.39 1095.21 1876.74 1104.77 1881.44 1112.92C1886.14 1121.06 1893.19 1127.33 1902.59 1131.72C1911.99 1136.1 1923.74 1138.3 1937.84 1138.3C1952.26 1138.3 1964.01 1136.1 1973.09 1131.72C1982.49 1127.33 1989.54 1121.06 1994.24 1112.92C1998.94 1104.77 2001.29 1095.21 2001.29 1084.25V863.816H2094.35V1077.67C2094.35 1106.49 2087.77 1130.78 2074.61 1150.52C2061.77 1170.26 2043.59 1185.3 2020.09 1195.64C1996.59 1205.98 1969.18 1211.15 1937.84 1211.15Z" fill="white"/>
<path d="M1440.39 1206.45V863.816H1623.69C1649.7 863.816 1671.48 868.359 1689.02 877.446C1706.57 886.219 1719.57 898.752 1728.03 915.046C1736.81 931.026 1741.19 949.669 1741.19 970.976C1741.19 988.522 1737.9 1004.03 1731.32 1017.51C1725.06 1030.98 1716.13 1042.1 1704.53 1050.88C1692.94 1059.34 1679.15 1065.29 1663.17 1068.74L1660.82 1068.27L1662.7 1061.69L1754.82 1206.45H1643.43L1571.52 1086.13H1525.93V1016.1H1604.42C1616.64 1016.1 1625.89 1013.12 1632.15 1007.17C1638.73 1001.21 1642.02 992.909 1642.02 982.256V968.156C1642.02 957.502 1638.73 949.356 1632.15 943.716C1625.57 937.762 1616.33 934.786 1604.42 934.786H1533.45V1206.45H1440.39Z" fill="white"/>
<path d="M1239.73 1211.15C1216.23 1211.15 1194.76 1208.33 1175.34 1202.69C1156.22 1196.73 1139.77 1188.12 1125.99 1176.84C1112.51 1165.56 1102.02 1151.61 1094.5 1135.01C1086.98 1118.4 1083.22 1099.29 1083.22 1077.67V863.816H1176.28V1084.25C1176.28 1095.21 1178.63 1104.77 1183.33 1112.92C1188.03 1121.06 1195.08 1127.33 1204.48 1131.72C1213.88 1136.1 1225.63 1138.3 1239.73 1138.3C1254.14 1138.3 1265.89 1136.1 1274.98 1131.72C1284.38 1127.33 1291.43 1121.06 1296.13 1112.92C1300.83 1104.77 1303.18 1095.21 1303.18 1084.25V863.816H1396.24V1077.67C1396.24 1106.49 1389.66 1130.78 1376.5 1150.52C1363.65 1170.26 1345.48 1185.3 1321.98 1195.64C1298.48 1205.98 1271.06 1211.15 1239.73 1211.15Z" fill="white"/>
<path d="M719.33 1206.45V863.816H812.39V1206.45H719.33ZM946.81 1206.45V863.816H1039.4V1206.45H946.81ZM804.87 1069.21V995.886H954.33V1069.21H804.87Z" fill="white"/>
</g>
</svg>
